<svg width="24" height="11" viewBox="0 0 24 11" fill="none" xmlns="http://www.w3.org/2000/svg">
<g clip-path="url(#clip0_3531_101)">
<path d="M17.6633 8.39425L18.3567 6.64098H20.3585L19.4085 3.98134L20.5967 0.976562L24 10.0126H21.4902L20.9086 8.39425H17.6633Z" fill="#3D3D3D"/>
<path d="M15.5223 10.0127L19.1655 0.976562L16.7502 0.976609L14.258 6.81587L12.4858 0.976609H10.6292L8.7263 6.81587L7.38431 4.15506L6.16992 7.89648L7.40292 10.0127H9.77995L11.4995 4.77606L13.139 10.0127H15.5223Z" fill="#5A0FC8"/>
<path d="M2.29275 6.9107H3.78047C4.23113 6.9107 4.63242 6.86041 4.98436 6.75977L5.36911 5.57444L6.44442 2.26159C6.36183 2.13085 6.26794 2.0076 6.16383 1.89325C5.61169 1.28209 4.80394 0.976562 3.74039 0.976562H0V10.0127H2.29275V6.9107ZM4.26197 3.05537C4.47764 3.27241 4.58545 3.56289 4.58545 3.92678C4.58545 4.29344 4.49062 4.58425 4.30097 4.79917C4.09308 5.038 3.71025 5.15739 3.15253 5.15739H2.29275V2.72987H3.15881C3.67866 2.72987 4.04634 2.83834 4.26197 3.05537Z" fill="#3D3D3D"/>
</g>
<defs>
<clipPath id="clip0_3531_101">
<rect width="24" height="9.04688" fill="white" transform="translate(0 0.976562)"/>
</clipPath>
</defs>
</svg>
